<?xml version="1.0" encoding="UTF-8"?>
<svg id="Layer_2" xmlns="http://www.w3.org/2000/svg" viewBox="0 0 109.52 90.02">
  <defs>
    <style>
      .cls-1 {
        fill: #231f20;
      }
    </style>
  </defs>
  <g id="Layer_1-2" data-name="Layer_1">
    <g>
      <path d="M48.74,80.51c0-1.38,1.31-2.97,1.99-2.97s1.17.49,1.1.58c-.07.08-.4-.19-.67-.19-.76,0-1.88,1.88-1.88,2.95,0,.23.06.28.16.28.87,0,4.45-3.11,4.62-3.26.05-.02.22.05.15.11-1.1,1.01-3.98,3.36-4.64,3.36-.43,0-.83-.45-.83-.85Z"/>
      <path d="M52.89,80.37c.1-.25,1.2-2.97,1.2-3.53,0-.19.67.24.59.45-.07.22-1.37,3.1-1.05,2.74.31-.36,1.71-2.12,2.33-2.1.4,0,.49.59.63.88.05.08.1.15.16.15.47.06,1.77-.8,1.97-.94.2-.14.3.02.12.15-.18.12-1.39,1.1-1.79,1.11-.45.02-.72-.28-.86-.56-.11-.23-.15-.44-.29-.43-.71.06-2.25,2.36-2.4,2.66-.15.3-.71-.32-.6-.58Z"/>
      <path d="M57.71,80.06c0-1.14,1.24-2.64,2.27-2.64.45,0,.7.18.7.46,0,.36-.51.91-1.03.91-.31,0-.46-.15-.61-.31-.43.52-.78,1.23-.78,1.9,0,.35.2.58.59.58,1.03-.02,3.75-2.53,3.99-2.76.16-.16.29.08.13.22-.57.48-3.05,2.71-4.01,2.71-.72,0-1.24-.35-1.24-1.07ZM59.11,78.39c.09.11.25.17.36.17.25,0,.91-.38.91-.82,0-.05-.03-.1-.11-.1-.32,0-.76.3-1.16.75Z"/>
      <path d="M64.38,80.85c0-.65.64-1.9.99-2.84-.97.73-2.45,2.51-3.09,2.51-.19,0-.51-.24-.51-.51,0-.53.99-2.51,1.87-2.51.65,0,1.15.48,1.07.58-.11.13-.33-.18-.54-.18-.52,0-1.87,1.38-1.87,2.2,0,.08.08.09.1.09.44,0,2.26-1.86,2.58-2.19.32-.33.45-.45.58-.45s.41.14.41.35c0,.28-1.06,2.65-1.06,3.25,0,.14.13.16.18.16.65,0,3.27-2.67,3.76-3.05.13-.1.19.05.12.12-.04.04-1.12,1.09-2.09,1.99-.68.62-1.29,1.18-1.63,1.18-.49,0-.88-.41-.88-.7Z"/>
      <path d="M67.08,81.9c.07-2.13,1.26-3.62,2.3-6.11-1.9.18-4.41.48-6.05.87-.15.04-.41-.39-.12-.45,1.04-.18,3.97-.46,6.26-.63.54-1.26,1.02-2.27,1.27-2.71.07-.11.33-.08.66-.03.32.05.64.16.6.27-.02.06-.21.03-.4.15-.44.27-.98,1.14-1.52,2.29.9-.06,1.65-.1,2.05-.1,1.36,0,1.5.35,1.5.45,0,.15-.11.25-.25.26-.07,0-.15-.11-.05-.17.16-.09.11-.36-1.47-.37-.26,0-.96.04-1.87.11-1.12,2.47-2.2,4.21-2.29,6.22-.05,1.11.69,1.24.38,1.32-.25.07-1.04-.31-1.01-1.38Z"/>
      <path d="M70.38,80.62c0-.73.5-2.05.7-2.37.03-.05.03-.08.02-.12,0-.05-.07-.06-.03-.12.21-.34.26-.42.33-.44.04,0,.09,0,.15.02.27.08.63.39.57.48-.68.87-1.64,2.7-1.28,2.83.51.19,2.79-1.78,3.82-2.9.23-.25.28.01.18.11s-2.78,2.95-3.91,2.95c-.27,0-.54-.09-.54-.45ZM72.01,76.42c.04-.11.23-.76.28-.93.06-.17.68.15.59.31s-.47.63-.55.76c-.08.12-.37-.04-.33-.15Z"/>
      <path d="M73.59,80.99c0-.84,1.01-3.01,1.01-3.06s.03-.12-.03-.31c-.06-.19.82.07.82.48s-1.29,2.04-1.29,3.18c0,.31.09.43.31.41.79-.07,2.11-1.76,3.01-3.06-.08-.15-.12-.3-.12-.42,0-.27.13-.52.34-.52s.53.11.53.3c0,.07-.15.31-.39.65.1.29.3.55.71.55.8,0,1.54-.78,1.64-.87.09-.09.57,0,.36.18-.21.18-1.25.95-1.93.95-.38,0-.72-.25-.96-.55-.89,1.21-2.53,3.18-3.12,3.18-.35,0-.89-.24-.89-1.08Z"/>
      <path d="M79.22,80.06c0-1.14,1.24-2.64,2.27-2.64.45,0,.7.18.7.46,0,.36-.51.91-1.03.91-.31,0-.46-.15-.61-.31-.43.52-.78,1.23-.78,1.9,0,.35.2.58.59.58,1.03-.02,3.75-2.53,3.99-2.76.16-.16.29.08.13.22-.57.48-3.05,2.71-4.01,2.71-.72,0-1.24-.35-1.24-1.07ZM80.62,78.39c.09.11.25.17.36.17.25,0,.91-.38.91-.82,0-.05-.03-.1-.11-.1-.32,0-.76.3-1.16.75Z"/>
    </g>
    <g>
      <path d="M48.54,86.15c0-.66.15-1.19.44-1.59s.67-.6,1.14-.6.84.17,1.11.52v-2.24h.68v6.1h-.63l-.03-.46c-.27.36-.65.54-1.14.54s-.84-.2-1.13-.61c-.29-.41-.44-.94-.44-1.6v-.06ZM49.22,86.23c0,.49.09.87.28,1.14.19.28.45.41.78.41.43,0,.75-.21.95-.63v-1.97c-.21-.4-.52-.61-.94-.61-.34,0-.6.14-.78.42-.19.28-.28.69-.28,1.23Z"/>
      <path d="M55.64,88.41c-.54,0-.98-.19-1.32-.57-.34-.38-.51-.89-.51-1.53v-.13c0-.43.08-.81.23-1.14.15-.33.36-.6.64-.79.27-.19.57-.28.89-.28.52,0,.92.18,1.21.55.29.37.43.89.43,1.58v.31h-2.71c0,.42.12.77.35,1.03.22.26.5.39.84.39.24,0,.45-.05.61-.16s.31-.25.44-.42l.42.35c-.34.55-.84.83-1.51.83ZM55.55,84.56c-.28,0-.51.11-.7.32-.19.22-.3.52-.35.91h2v-.06c-.02-.37-.11-.66-.28-.87s-.39-.31-.68-.31Z"/>
      <path d="M61.32,87.19c0-.2-.07-.35-.21-.46-.14-.11-.38-.2-.73-.28-.35-.08-.62-.17-.83-.29-.2-.11-.35-.24-.45-.4-.1-.15-.15-.34-.15-.55,0-.35.14-.65.42-.89s.63-.37,1.06-.37c.45,0,.82.13,1.1.38.28.25.42.57.42.96h-.69c0-.2-.08-.37-.24-.52s-.36-.22-.6-.22-.44.06-.58.17c-.14.12-.21.27-.21.46,0,.18.07.31.2.4.13.09.37.18.71.26s.62.18.83.29c.21.11.37.25.47.41.1.16.15.36.15.59,0,.38-.14.69-.43.92-.29.23-.66.35-1.11.35-.32,0-.6-.06-.85-.18-.25-.12-.44-.29-.58-.51s-.21-.45-.21-.71h.68c.01.25.1.44.28.59.17.14.4.22.68.22.26,0,.47-.06.62-.17.16-.11.24-.26.24-.45Z"/>
      <path d="M63.9,82.9c0-.12.03-.22.1-.3.07-.08.17-.12.3-.12s.23.04.3.12c.07.08.1.18.1.3s-.04.22-.1.3c-.07.08-.17.12-.3.12s-.23-.04-.3-.12c-.07-.08-.1-.18-.1-.3ZM64.64,88.33h-.68v-4.29h.68v4.29Z"/>
      <path d="M66.57,86.15c0-.67.14-1.2.43-1.6.29-.4.67-.59,1.15-.59s.87.19,1.14.56l.03-.48h.62v4.19c0,.56-.15.99-.46,1.31-.31.32-.72.48-1.24.48-.29,0-.57-.07-.85-.2s-.49-.31-.63-.54l.36-.44c.29.39.65.58,1.08.58.33,0,.59-.1.78-.3.19-.2.28-.48.28-.85v-.37c-.27.34-.65.51-1.12.51s-.85-.2-1.14-.61c-.29-.4-.43-.96-.43-1.66ZM67.26,86.23c0,.48.09.86.28,1.14.19.28.44.41.78.41.43,0,.75-.21.95-.63v-1.96c-.21-.41-.52-.62-.94-.62-.33,0-.59.14-.78.42s-.28.69-.28,1.23Z"/>
      <path d="M72.64,84.04l.02.54c.31-.41.71-.62,1.2-.62.85,0,1.27.51,1.28,1.54v2.84h-.68v-2.84c0-.31-.07-.54-.2-.69-.13-.15-.33-.22-.61-.22-.22,0-.42.06-.58.19-.17.13-.3.29-.39.5v3.06h-.68v-4.29h.65Z"/>
      <path d="M78.83,88.41c-.54,0-.98-.19-1.32-.57-.34-.38-.51-.89-.51-1.53v-.13c0-.43.08-.81.23-1.14.15-.33.36-.6.64-.79.27-.19.57-.28.89-.28.52,0,.92.18,1.21.55.29.37.43.89.43,1.58v.31h-2.71c0,.42.12.77.35,1.03.22.26.5.39.84.39.24,0,.45-.05.61-.16s.31-.25.44-.42l.42.35c-.34.55-.84.83-1.51.83ZM78.74,84.56c-.28,0-.51.11-.7.32-.19.22-.3.52-.35.91h2v-.06c-.02-.37-.11-.66-.28-.87s-.39-.31-.68-.31Z"/>
      <path d="M84.12,84.7c-.1-.02-.22-.03-.34-.03-.45,0-.75.21-.91.62v3.05h-.68v-4.29h.67v.5c.24-.38.55-.58.97-.58.13,0,.23.02.3.06v.68Z"/>
    </g>
    <g>
      <g>
        <path class="cls-1" d="M39.99,88.3h-18.02V18.6H1.27V1.4h81.39l-10.19,17.37-32.48-.18v69.72ZM22.59,87.63h16.76V18l32.74.18L81.6,1.97H1.9v16.05h20.69v69.61Z"/>
        <path class="cls-1" d="M107.56,88.54h-16.43c-.17,0-.32-.13-.32-.29v-37.65c0-3.73.11-7.33.31-10.7.03-.43.06-.86.1-1.29l-9.21,17.07c-.05.1-.16.16-.28.16h-10.27c-.12,0-.23-.06-.28-.16l-9.46-16.81c-.11-.28-.21-.53-.29-.74.06.54.12,1.15.12,1.68.18,3.33.28,6.96.28,10.78v17.95c0,.16-.14.29-.32.29h-15.37c-.17,0-.32-.13-.32-.29V24.78c0-.16.14-.29.32-.29h26.15c.13,0,.25.07.3.19l3.43,8.3L90.84,1.57c.05-.11.16-.17.29-.17h16.91c.08,0,.16.03.22.08s.09.13.09.2l-.48,86.57c0,.16-.14.29-.32.29ZM91.44,87.96h15.8l.48-85.99h-16.38l-15.06,31.89c-.05.11-.17.17-.3.17-.13,0-.24-.08-.29-.19l-3.63-8.78h-25.61v43.19h14.74v-17.66c0-3.81-.09-7.43-.28-10.77,0-.63-.09-1.39-.16-2-.13-1.14-.16-1.42.2-1.49.34-.07.45,0,1.35,2.31l9.36,16.62h9.88l9.87-18.27c.07-.12.22-.19.37-.15.15.04.24.16.23.3l-.07.71c-.07.7-.13,1.4-.18,2.09-.21,3.36-.31,6.95-.31,10.67v37.36Z"/>
      </g>
      <rect class="cls-1" width="2.97" height="2.71"/>
      <rect class="cls-1" x=".1" y="17.22" width="2.97" height="2.71"/>
      <rect class="cls-1" x="80.64" y=".3" width="2.97" height="2.71"/>
      <rect class="cls-1" x="70.53" y="17.22" width="2.97" height="2.71"/>
      <rect class="cls-1" x="38.24" y="17.22" width="2.97" height="2.71"/>
      <rect class="cls-1" x="20.85" y="17.22" width="2.97" height="2.71"/>
      <rect class="cls-1" x="44.65" y="23.69" width="2.97" height="2.71"/>
      <rect class="cls-1" x="44.65" y="66.58" width="2.97" height="2.71"/>
      <rect class="cls-1" x="60.25" y="66.58" width="2.97" height="2.71"/>
      <rect class="cls-1" x="60.25" y="35.77" width="2.97" height="2.71"/>
      <rect class="cls-1" x="69.73" y="53.9" width="2.97" height="2.71"/>
      <rect class="cls-1" x="80.64" y="53.9" width="2.97" height="2.71"/>
      <rect class="cls-1" x="89.78" y="35.77" width="2.97" height="2.71"/>
      <rect class="cls-1" x="74.75" y="32.08" width="2.97" height="2.71"/>
      <rect class="cls-1" x="70.53" y="23.69" width="2.97" height="2.71"/>
      <rect class="cls-1" x="89.78" y=".3" width="2.97" height="2.71"/>
      <rect class="cls-1" x="106.55" y=".3" width="2.97" height="2.71"/>
      <rect class="cls-1" x="20.85" y="86.61" width="2.97" height="2.71"/>
      <rect class="cls-1" x="38.24" y="86.69" width="2.97" height="2.71"/>
      <rect class="cls-1" x="89.78" y="86.69" width="2.97" height="2.71"/>
      <rect class="cls-1" x="106.55" y="86.69" width="2.97" height="2.71"/>
    </g>
    <path d="M77.71,67.39l2.21,1.09c.11.05.18.17.18.3s-.07.25-.18.3l-2.22,1.09-1.02,2.36c-.05.12-.16.19-.28.19s-.23-.07-.28-.19l-1.02-2.36-2.22-1.09c-.11-.05-.18-.17-.18-.3s.07-.25.18-.3l2.21-1.09,1.03-2.36c.05-.12.16-.19.28-.19s.23.07.28.19l1.02,2.36ZM80.16,64.84l.41-1.17c.03-.09.12-.16.21-.16s.18.06.21.16l.41,1.17,1.1.44c.09.04.15.12.15.22s-.06.19-.15.22l-1.1.44-.41,1.17c-.03.09-.12.16-.21.16s-.18-.06-.21-.16l-.41-1.17-1.1-.44c-.09-.04-.15-.12-.15-.22s.06-.19.15-.22l1.1-.44ZM80.57,70.29c.03-.09.12-.16.21-.16s.18.06.21.16l.41,1.17,1.1.44c.09.04.15.12.15.22s-.06.19-.15.22l-1.1.44-.41,1.17c-.03.09-.12.16-.21.16s-.18-.06-.21-.16l-.41-1.17-1.1-.44c-.09-.04-.15-.12-.15-.22s.06-.19.15-.22l1.1-.44.41-1.17Z"/>
  </g>
</svg>